<svg xmlns="http://www.w3.org/2000/svg" width="846" height="200" viewBox="0 0 846 200" role="img" aria-label="real[]case — from ui to ai and back again">
<defs><clipPath id="rounded"><rect x="0" y="0" width="846" height="200" rx="6" ry="6"/></clipPath></defs>
<g clip-path="url(#rounded)">
<rect width="846" height="200" fill="#f4f2ec"/>
<path d="M206.124 105.170L199.986 105.170L199.986 71.070L206.062 71.070L206.062 77.642L206.124 77.642Q206.620 74.294 209.007 72.372Q211.394 70.450 215.362 70.450Q220.632 70.450 223.546 73.705Q226.460 76.960 226.460 82.850L226.460 85.826L220.322 85.826L220.322 82.912Q220.322 75.782 213.316 75.782Q209.782 75.782 207.953 77.828Q206.124 79.874 206.124 83.656 M248.160 105.790Q242.022 105.790 238.271 102.132Q234.520 98.474 234.520 92.150L234.520 84.090Q234.520 77.766 238.271 74.108Q242.022 70.450 248.160 70.450Q252.252 70.450 255.321 72.093Q258.390 73.736 260.095 76.681Q261.800 79.626 261.800 83.532L261.800 89.670L240.534 89.670L240.534 92.646Q240.534 96.366 242.580 98.474Q244.626 100.582 248.160 100.582Q251.136 100.582 253.058 99.466Q254.980 98.350 255.352 96.366L261.490 96.366Q260.870 100.706 257.212 103.248Q253.554 105.790 248.160 105.790M240.534 83.532L240.534 85.144L255.786 85.144L255.786 83.532Q255.786 79.626 253.802 77.518Q251.818 75.410 248.160 75.410Q244.502 75.410 242.518 77.518Q240.534 79.626 240.534 83.532 M281.268 105.790Q275.998 105.790 272.929 102.845Q269.860 99.900 269.860 95.126Q269.860 90.352 273.053 87.438Q276.246 84.524 281.454 84.524L291.436 84.524L291.436 81.920Q291.436 75.658 284.492 75.658Q281.392 75.658 279.501 76.805Q277.610 77.952 277.486 79.998L271.410 79.998Q271.720 75.844 275.192 73.147Q278.664 70.450 284.492 70.450Q290.754 70.450 294.164 73.426Q297.574 76.402 297.574 81.796L297.574 105.170L291.560 105.170L291.560 98.908L291.436 98.908Q291.002 102.070 288.305 103.930Q285.608 105.790 281.268 105.790M282.880 100.644Q286.786 100.644 289.111 98.753Q291.436 96.862 291.436 93.576L291.436 89.050L282.012 89.050Q279.346 89.050 277.703 90.631Q276.060 92.212 276.060 94.816Q276.060 97.482 277.858 99.063Q279.656 100.644 282.880 100.644 M336.324 105.170L325.784 105.170Q321.134 105.170 318.344 102.442Q315.554 99.714 315.554 95.188L315.554 65.490L303.898 65.490L303.898 59.910L321.692 59.910L321.692 95.126Q321.692 97.172 322.839 98.381Q323.986 99.590 325.970 99.590L336.324 99.590" fill="#1b1a17"/>
<rect x="345.81" y="82.69" width="33.48" height="7.13" rx="1" fill="#1b1a17"/>
<path d="M414.878 111.990L399.130 111.990L399.130 53.710L414.878 53.710L414.878 59.228L405.268 59.228L405.268 106.472L414.878 106.472 M447.800 111.990L432.052 111.990L432.052 106.472L441.662 106.472L441.662 59.228L432.052 59.228L432.052 53.710L447.800 53.710" fill="#e85c2e"/>
<rect x="466.71" y="82.69" width="33.48" height="7.13" rx="1" fill="#1b1a17"/>
<path d="M526.726 105.790Q520.464 105.790 516.682 102.287Q512.900 98.784 512.900 92.646L512.900 83.532Q512.900 77.456 516.682 73.953Q520.464 70.450 526.726 70.450Q532.740 70.450 536.429 73.643Q540.118 76.836 540.304 82.354L534.228 82.354Q534.042 79.254 532.027 77.549Q530.012 75.844 526.726 75.844Q523.192 75.844 521.115 77.859Q519.038 79.874 519.038 83.532L519.038 92.646Q519.038 96.366 521.115 98.350Q523.192 100.334 526.726 100.334Q530.074 100.334 532.058 98.660Q534.042 96.986 534.228 93.886L540.304 93.886Q540.118 99.404 536.429 102.597Q532.740 105.790 526.726 105.790 M559.338 105.790Q554.068 105.790 550.999 102.845Q547.930 99.900 547.930 95.126Q547.930 90.352 551.123 87.438Q554.316 84.524 559.524 84.524L569.506 84.524L569.506 81.920Q569.506 75.658 562.562 75.658Q559.462 75.658 557.571 76.805Q555.680 77.952 555.556 79.998L549.480 79.998Q549.790 75.844 553.262 73.147Q556.734 70.450 562.562 70.450Q568.824 70.450 572.234 73.426Q575.644 76.402 575.644 81.796L575.644 105.170L569.630 105.170L569.630 98.908L569.506 98.908Q569.072 102.070 566.375 103.930Q563.678 105.790 559.338 105.790M560.950 100.644Q564.856 100.644 567.181 98.753Q569.506 96.862 569.506 93.576L569.506 89.050L560.082 89.050Q557.416 89.050 555.773 90.631Q554.130 92.212 554.130 94.816Q554.130 97.482 555.928 99.063Q557.726 100.644 560.950 100.644 M600.134 105.666L597.406 105.666Q591.578 105.666 588.354 103.062Q585.130 100.458 585.130 95.746L591.206 95.746Q591.206 97.978 592.849 99.249Q594.492 100.520 597.406 100.520L600.134 100.520Q603.172 100.520 604.815 99.218Q606.458 97.916 606.458 95.560Q606.458 91.406 602.366 90.910L593.190 89.608Q589.532 89.050 587.548 86.601Q585.564 84.152 585.564 80.246Q585.564 75.658 588.664 73.116Q591.764 70.574 597.344 70.574L600.072 70.574Q605.280 70.574 608.504 73.054Q611.728 75.534 611.914 79.626L605.714 79.626Q605.590 77.890 604.102 76.743Q602.614 75.596 600.072 75.596L597.344 75.596Q594.554 75.596 593.035 76.836Q591.516 78.076 591.516 80.184Q591.516 83.594 594.926 84.028L603.544 85.268Q612.410 86.446 612.410 95.560Q612.410 100.396 609.217 103.031Q606.024 105.666 600.134 105.666 M635.040 105.790Q628.902 105.790 625.151 102.132Q621.400 98.474 621.400 92.150L621.400 84.090Q621.400 77.766 625.151 74.108Q628.902 70.450 635.040 70.450Q639.132 70.450 642.201 72.093Q645.270 73.736 646.975 76.681Q648.680 79.626 648.680 83.532L648.680 89.670L627.414 89.670L627.414 92.646Q627.414 96.366 629.460 98.474Q631.506 100.582 635.040 100.582Q638.016 100.582 639.938 99.466Q641.860 98.350 642.232 96.366L648.370 96.366Q647.750 100.706 644.092 103.248Q640.434 105.790 635.040 105.790M627.414 83.532L627.414 85.144L642.666 85.144L642.666 83.532Q642.666 79.626 640.682 77.518Q638.698 75.410 635.040 75.410Q631.382 75.410 629.398 77.518Q627.414 79.626 627.414 83.532" fill="#1b1a17"/>
<path d="M286.760 139.470L285.320 139.470L285.320 133.182L282.760 133.182L282.760 131.870L285.320 131.870L285.320 130.030Q285.320 128.990 285.976 128.390Q286.632 127.790 287.784 127.790L290.360 127.790L290.360 129.102L287.784 129.102Q286.760 129.102 286.760 130.030L286.760 131.870L290.360 131.870L290.360 133.182L286.760 133.182 M295.192 139.470L293.752 139.470L293.752 130.670L295.192 130.670L295.192 132.350L295.224 132.350Q295.336 131.502 295.944 131.006Q296.552 130.510 297.576 130.510Q298.952 130.510 299.696 131.334Q300.440 132.158 300.440 133.678L300.440 134.430L299 134.430L299 133.678Q299 131.758 297.128 131.758Q296.184 131.758 295.688 132.302Q295.192 132.846 295.192 133.870 M306.840 139.598Q305.256 139.598 304.320 138.670Q303.384 137.742 303.384 136.078L303.384 134.062Q303.384 132.382 304.312 131.462Q305.240 130.542 306.840 130.542Q308.440 130.542 309.368 131.462Q310.296 132.382 310.296 134.062L310.296 136.078Q310.296 137.742 309.360 138.670Q308.424 139.598 306.840 139.598M306.840 138.318Q307.784 138.318 308.320 137.790Q308.856 137.262 308.856 136.238L308.856 133.902Q308.856 132.878 308.320 132.350Q307.784 131.822 306.840 131.822Q305.912 131.822 305.368 132.350Q304.824 132.878 304.824 133.902L304.824 136.238Q304.824 137.262 305.368 137.790Q305.912 138.318 306.840 138.318 M314.424 139.470L313.080 139.470L313.080 130.670L314.328 130.670L314.328 131.838L314.360 131.838Q314.440 131.246 314.832 130.878Q315.224 130.510 315.832 130.510Q316.408 130.510 316.808 130.846Q317.208 131.182 317.384 131.758L317.400 131.758Q317.512 131.182 317.904 130.846Q318.296 130.510 318.904 130.510Q319.752 130.510 320.256 131.142Q320.760 131.774 320.760 132.782L320.760 139.470L319.416 139.470L319.416 132.766Q319.416 132.238 319.160 131.926Q318.904 131.614 318.456 131.614Q318.024 131.614 317.768 131.918Q317.512 132.222 317.512 132.750L317.512 139.470L316.328 139.470L316.328 132.766Q316.328 132.238 316.072 131.926Q315.816 131.614 315.384 131.614Q314.936 131.614 314.680 131.918Q314.424 132.222 314.424 132.750" fill="#56534b"/>
<path d="M337.064 139.630Q335.544 139.630 334.632 138.726Q333.720 137.822 333.720 136.270L333.720 130.670L335.160 130.670L335.160 136.270Q335.160 137.230 335.672 137.798Q336.184 138.366 337.064 138.366Q337.960 138.366 338.480 137.798Q339 137.230 339 136.270L339 130.670L340.440 130.670L340.440 136.270Q340.440 137.822 339.512 138.726Q338.584 139.630 337.064 139.630 M351.240 139.470L343.720 139.470L343.720 138.158L346.840 138.158L346.840 131.982L344.040 131.982L344.040 130.670L348.280 130.670L348.280 138.158L351.240 138.158L351.240 139.470M347.400 129.086Q346.872 129.086 346.568 128.814Q346.264 128.542 346.264 128.078Q346.264 127.598 346.568 127.318Q346.872 127.038 347.400 127.038Q347.928 127.038 348.232 127.318Q348.536 127.598 348.536 128.078Q348.536 128.542 348.232 128.814Q347.928 129.086 347.400 129.086" fill="#e85c2e"/>
<path d="M370.760 139.470L368.200 139.470Q367.112 139.470 366.456 138.838Q365.800 138.206 365.800 137.150L365.800 131.982L363.272 131.982L363.272 130.670L365.800 130.670L365.800 128.190L367.240 128.190L367.240 130.670L370.840 130.670L370.840 131.982L367.240 131.982L367.240 137.150Q367.240 137.598 367.504 137.878Q367.768 138.158 368.200 138.158L370.760 138.158 M377.400 139.598Q375.816 139.598 374.880 138.670Q373.944 137.742 373.944 136.078L373.944 134.062Q373.944 132.382 374.872 131.462Q375.800 130.542 377.400 130.542Q379 130.542 379.928 131.462Q380.856 132.382 380.856 134.062L380.856 136.078Q380.856 137.742 379.920 138.670Q378.984 139.598 377.400 139.598M377.400 138.318Q378.344 138.318 378.880 137.790Q379.416 137.262 379.416 136.238L379.416 133.902Q379.416 132.878 378.880 132.350Q378.344 131.822 377.400 131.822Q376.472 131.822 375.928 132.350Q375.384 132.878 375.384 133.902L375.384 136.238Q375.384 137.262 375.928 137.790Q376.472 138.318 377.400 138.318" fill="#56534b"/>
<path d="M396.792 139.630Q395.432 139.630 394.632 138.870Q393.832 138.110 393.832 136.878Q393.832 136.062 394.200 135.454Q394.568 134.846 395.224 134.502Q395.880 134.158 396.728 134.158L399.448 134.158L399.448 133.470Q399.448 131.758 397.576 131.758Q396.744 131.758 396.232 132.062Q395.720 132.366 395.688 132.910L394.248 132.910Q394.328 131.870 395.216 131.190Q396.104 130.510 397.576 130.510Q399.176 130.510 400.032 131.278Q400.888 132.046 400.888 133.422L400.888 139.470L399.464 139.470L399.464 137.870L399.432 137.870Q399.304 138.686 398.616 139.158Q397.928 139.630 396.792 139.630M397.144 138.414Q398.200 138.414 398.824 137.902Q399.448 137.390 399.448 136.510L399.448 135.278L396.888 135.278Q396.184 135.278 395.744 135.702Q395.304 136.126 395.304 136.830Q395.304 137.566 395.792 137.990Q396.280 138.414 397.144 138.414 M411.720 139.470L404.200 139.470L404.200 138.158L407.320 138.158L407.320 131.982L404.520 131.982L404.520 130.670L408.760 130.670L408.760 138.158L411.720 138.158L411.720 139.470M407.880 129.086Q407.352 129.086 407.048 128.814Q406.744 128.542 406.744 128.078Q406.744 127.598 407.048 127.318Q407.352 127.038 407.880 127.038Q408.408 127.038 408.712 127.318Q409.016 127.598 409.016 128.078Q409.016 128.542 408.712 128.814Q408.408 129.086 407.880 129.086" fill="#e85c2e"/>
<path d="M427.032 139.630Q425.672 139.630 424.872 138.870Q424.072 138.110 424.072 136.878Q424.072 136.062 424.440 135.454Q424.808 134.846 425.464 134.502Q426.120 134.158 426.968 134.158L429.688 134.158L429.688 133.470Q429.688 131.758 427.816 131.758Q426.984 131.758 426.472 132.062Q425.960 132.366 425.928 132.910L424.488 132.910Q424.568 131.870 425.456 131.190Q426.344 130.510 427.816 130.510Q429.416 130.510 430.272 131.278Q431.128 132.046 431.128 133.422L431.128 139.470L429.704 139.470L429.704 137.870L429.672 137.870Q429.544 138.686 428.856 139.158Q428.168 139.630 427.032 139.630M427.384 138.414Q428.440 138.414 429.064 137.902Q429.688 137.390 429.688 136.510L429.688 135.278L427.128 135.278Q426.424 135.278 425.984 135.702Q425.544 136.126 425.544 136.830Q425.544 137.566 426.032 137.990Q426.520 138.414 427.384 138.414 M435.992 139.470L434.552 139.470L434.552 130.670L435.992 130.670L435.992 132.350L436.008 132.350Q436.120 131.470 436.728 130.990Q437.336 130.510 438.344 130.510Q439.672 130.510 440.456 131.326Q441.240 132.142 441.240 133.550L441.240 139.470L439.800 139.470L439.800 133.806Q439.800 132.798 439.296 132.262Q438.792 131.726 437.928 131.726Q437.032 131.726 436.512 132.286Q435.992 132.846 435.992 133.870 M447.448 139.630Q446.136 139.630 445.344 138.750Q444.552 137.870 444.552 136.366L444.552 133.790Q444.552 132.270 445.336 131.390Q446.120 130.510 447.448 130.510Q448.440 130.510 449.088 131.006Q449.736 131.502 449.864 132.350L449.880 132.350L449.848 130.350L449.848 127.790L451.288 127.790L451.288 139.470L449.848 139.470L449.848 137.790L449.832 137.790Q449.720 138.654 449.080 139.142Q448.440 139.630 447.448 139.630M447.928 138.382Q448.824 138.382 449.336 137.822Q449.848 137.262 449.848 136.270L449.848 133.870Q449.848 132.878 449.336 132.318Q448.824 131.758 447.928 131.758Q447.016 131.758 446.504 132.230Q445.992 132.702 445.992 133.790L445.992 136.350Q445.992 137.422 446.504 137.902Q447.016 138.382 447.928 138.382  M468.632 139.630Q467.640 139.630 467 139.142Q466.360 138.654 466.248 137.790L466.232 137.790L466.232 139.470L464.792 139.470L464.792 127.790L466.232 127.790L466.232 130.350L466.200 132.350L466.216 132.350Q466.344 131.502 466.992 131.006Q467.640 130.510 468.632 130.510Q469.960 130.510 470.744 131.390Q471.528 132.270 471.528 133.790L471.528 136.366Q471.528 137.870 470.744 138.750Q469.960 139.630 468.632 139.630M468.152 138.382Q469.064 138.382 469.576 137.902Q470.088 137.422 470.088 136.350L470.088 133.790Q470.088 132.702 469.576 132.230Q469.064 131.758 468.152 131.758Q467.272 131.758 466.752 132.318Q466.232 132.878 466.232 133.870L466.232 136.270Q466.232 137.262 466.752 137.822Q467.272 138.382 468.152 138.382 M477.432 139.630Q476.072 139.630 475.272 138.870Q474.472 138.110 474.472 136.878Q474.472 136.062 474.840 135.454Q475.208 134.846 475.864 134.502Q476.520 134.158 477.368 134.158L480.088 134.158L480.088 133.470Q480.088 131.758 478.216 131.758Q477.384 131.758 476.872 132.062Q476.360 132.366 476.328 132.910L474.888 132.910Q474.968 131.870 475.856 131.190Q476.744 130.510 478.216 130.510Q479.816 130.510 480.672 131.278Q481.528 132.046 481.528 133.422L481.528 139.470L480.104 139.470L480.104 137.870L480.072 137.870Q479.944 138.686 479.256 139.158Q478.568 139.630 477.432 139.630M477.784 138.414Q478.840 138.414 479.464 137.902Q480.088 137.390 480.088 136.510L480.088 135.278L477.528 135.278Q476.824 135.278 476.384 135.702Q475.944 136.126 475.944 136.830Q475.944 137.566 476.432 137.990Q476.920 138.414 477.784 138.414 M488.408 139.630Q486.808 139.630 485.848 138.734Q484.888 137.838 484.888 136.270L484.888 133.870Q484.888 132.302 485.848 131.406Q486.808 130.510 488.408 130.510Q489.928 130.510 490.864 131.326Q491.800 132.142 491.848 133.550L490.408 133.550Q490.360 132.702 489.832 132.246Q489.304 131.790 488.408 131.790Q487.464 131.790 486.896 132.326Q486.328 132.862 486.328 133.854L486.328 136.270Q486.328 137.262 486.896 137.806Q487.464 138.350 488.408 138.350Q489.304 138.350 489.832 137.886Q490.360 137.422 490.408 136.590L491.848 136.590Q491.800 137.998 490.864 138.814Q489.928 139.630 488.408 139.630 M496.552 139.470L495.112 139.470L495.112 127.790L496.552 127.790L496.552 134.302L498.232 134.302L500.696 130.670L502.344 130.670L499.512 134.862L502.504 139.470L500.824 139.470L498.264 135.550L496.552 135.550  M517.752 139.630Q516.392 139.630 515.592 138.870Q514.792 138.110 514.792 136.878Q514.792 136.062 515.160 135.454Q515.528 134.846 516.184 134.502Q516.840 134.158 517.688 134.158L520.408 134.158L520.408 133.470Q520.408 131.758 518.536 131.758Q517.704 131.758 517.192 132.062Q516.680 132.366 516.648 132.910L515.208 132.910Q515.288 131.870 516.176 131.190Q517.064 130.510 518.536 130.510Q520.136 130.510 520.992 131.278Q521.848 132.046 521.848 133.422L521.848 139.470L520.424 139.470L520.424 137.870L520.392 137.870Q520.264 138.686 519.576 139.158Q518.888 139.630 517.752 139.630M518.104 138.414Q519.160 138.414 519.784 137.902Q520.408 137.390 520.408 136.510L520.408 135.278L517.848 135.278Q517.144 135.278 516.704 135.702Q516.264 136.126 516.264 136.830Q516.264 137.566 516.752 137.990Q517.240 138.414 518.104 138.414 M528.840 142.350L526.376 142.350L526.376 141.038L528.856 141.038Q529.608 141.038 530.040 140.614Q530.472 140.190 530.472 139.470L530.472 138.670L530.504 137.230L530.456 137.230Q530.328 138.014 529.704 138.438Q529.080 138.862 528.136 138.862Q526.776 138.862 525.992 137.998Q525.208 137.134 525.208 135.630L525.208 133.774Q525.208 132.270 525.992 131.390Q526.776 130.510 528.136 130.510Q529.080 130.510 529.704 130.958Q530.328 131.406 530.456 132.190L530.488 132.190L530.488 130.670L531.912 130.670L531.912 139.470Q531.912 140.798 531.088 141.574Q530.264 142.350 528.840 142.350M528.568 137.662Q529.464 137.662 529.976 137.102Q530.488 136.542 530.488 135.550L530.488 133.870Q530.488 132.878 529.976 132.318Q529.464 131.758 528.568 131.758Q527.656 131.758 527.152 132.286Q526.648 132.814 526.648 133.710L526.648 135.710Q526.648 136.606 527.152 137.134Q527.656 137.662 528.568 137.662 M537.912 139.630Q536.552 139.630 535.752 138.870Q534.952 138.110 534.952 136.878Q534.952 136.062 535.320 135.454Q535.688 134.846 536.344 134.502Q537 134.158 537.848 134.158L540.568 134.158L540.568 133.470Q540.568 131.758 538.696 131.758Q537.864 131.758 537.352 132.062Q536.840 132.366 536.808 132.910L535.368 132.910Q535.448 131.870 536.336 131.190Q537.224 130.510 538.696 130.510Q540.296 130.510 541.152 131.278Q542.008 132.046 542.008 133.422L542.008 139.470L540.584 139.470L540.584 137.870L540.552 137.870Q540.424 138.686 539.736 139.158Q539.048 139.630 537.912 139.630M538.264 138.414Q539.320 138.414 539.944 137.902Q540.568 137.390 540.568 136.510L540.568 135.278L538.008 135.278Q537.304 135.278 536.864 135.702Q536.424 136.126 536.424 136.830Q536.424 137.566 536.912 137.990Q537.400 138.414 538.264 138.414 M552.840 139.470L545.320 139.470L545.320 138.158L548.440 138.158L548.440 131.982L545.640 131.982L545.640 130.670L549.880 130.670L549.880 138.158L552.840 138.158L552.840 139.470M549 129.086Q548.472 129.086 548.168 128.814Q547.864 128.542 547.864 128.078Q547.864 127.598 548.168 127.318Q548.472 127.038 549 127.038Q549.528 127.038 549.832 127.318Q550.136 127.598 550.136 128.078Q550.136 128.542 549.832 128.814Q549.528 129.086 549 129.086 M556.952 139.470L555.512 139.470L555.512 130.670L556.952 130.670L556.952 132.350L556.968 132.350Q557.080 131.470 557.688 130.990Q558.296 130.510 559.304 130.510Q560.632 130.510 561.416 131.326Q562.200 132.142 562.200 133.550L562.200 139.470L560.760 139.470L560.760 133.806Q560.760 132.798 560.256 132.262Q559.752 131.726 558.888 131.726Q557.992 131.726 557.472 132.286Q556.952 132.846 556.952 133.870" fill="#56534b"/>
</g>
</svg>