<svg xmlns="http://www.w3.org/2000/svg" width="846" height="264" viewBox="0 0 846 264" role="img" aria-label="real[]case — from ui to ai and back again">
<rect width="846" height="264" fill="#f4f2ec"/>
<path d="M206.124 126.010L199.986 126.010L199.986 91.910L206.062 91.910L206.062 98.482L206.124 98.482Q206.620 95.134 209.007 93.212Q211.394 91.290 215.362 91.290Q220.632 91.290 223.546 94.545Q226.460 97.800 226.460 103.690L226.460 106.666L220.322 106.666L220.322 103.752Q220.322 96.622 213.316 96.622Q209.782 96.622 207.953 98.668Q206.124 100.714 206.124 104.496 M248.160 126.630Q242.022 126.630 238.271 122.972Q234.520 119.314 234.520 112.990L234.520 104.930Q234.520 98.606 238.271 94.948Q242.022 91.290 248.160 91.290Q252.252 91.290 255.321 92.933Q258.390 94.576 260.095 97.521Q261.800 100.466 261.800 104.372L261.800 110.510L240.534 110.510L240.534 113.486Q240.534 117.206 242.580 119.314Q244.626 121.422 248.160 121.422Q251.136 121.422 253.058 120.306Q254.980 119.190 255.352 117.206L261.490 117.206Q260.870 121.546 257.212 124.088Q253.554 126.630 248.160 126.630M240.534 104.372L240.534 105.984L255.786 105.984L255.786 104.372Q255.786 100.466 253.802 98.358Q251.818 96.250 248.160 96.250Q244.502 96.250 242.518 98.358Q240.534 100.466 240.534 104.372 M281.268 126.630Q275.998 126.630 272.929 123.685Q269.860 120.740 269.860 115.966Q269.860 111.192 273.053 108.278Q276.246 105.364 281.454 105.364L291.436 105.364L291.436 102.760Q291.436 96.498 284.492 96.498Q281.392 96.498 279.501 97.645Q277.610 98.792 277.486 100.838L271.410 100.838Q271.720 96.684 275.192 93.987Q278.664 91.290 284.492 91.290Q290.754 91.290 294.164 94.266Q297.574 97.242 297.574 102.636L297.574 126.010L291.560 126.010L291.560 119.748L291.436 119.748Q291.002 122.910 288.305 124.770Q285.608 126.630 281.268 126.630M282.880 121.484Q286.786 121.484 289.111 119.593Q291.436 117.702 291.436 114.416L291.436 109.890L282.012 109.890Q279.346 109.890 277.703 111.471Q276.060 113.052 276.060 115.656Q276.060 118.322 277.858 119.903Q279.656 121.484 282.880 121.484 M336.324 126.010L325.784 126.010Q321.134 126.010 318.344 123.282Q315.554 120.554 315.554 116.028L315.554 86.330L303.898 86.330L303.898 80.750L321.692 80.750L321.692 115.966Q321.692 118.012 322.839 119.221Q323.986 120.430 325.970 120.430L336.324 120.430" fill="#1b1a17"/>
<rect x="345.81" y="103.53" width="33.48" height="7.13" rx="1" fill="#1b1a17"/>
<path d="M414.878 132.830L399.130 132.830L399.130 74.550L414.878 74.550L414.878 80.068L405.268 80.068L405.268 127.312L414.878 127.312 M447.800 132.830L432.052 132.830L432.052 127.312L441.662 127.312L441.662 80.068L432.052 80.068L432.052 74.550L447.800 74.550" fill="#e85c2e"/>
<rect x="466.71" y="103.53" width="33.48" height="7.13" rx="1" fill="#1b1a17"/>
<path d="M526.726 126.630Q520.464 126.630 516.682 123.127Q512.900 119.624 512.900 113.486L512.900 104.372Q512.900 98.296 516.682 94.793Q520.464 91.290 526.726 91.290Q532.740 91.290 536.429 94.483Q540.118 97.676 540.304 103.194L534.228 103.194Q534.042 100.094 532.027 98.389Q530.012 96.684 526.726 96.684Q523.192 96.684 521.115 98.699Q519.038 100.714 519.038 104.372L519.038 113.486Q519.038 117.206 521.115 119.190Q523.192 121.174 526.726 121.174Q530.074 121.174 532.058 119.500Q534.042 117.826 534.228 114.726L540.304 114.726Q540.118 120.244 536.429 123.437Q532.740 126.630 526.726 126.630 M559.338 126.630Q554.068 126.630 550.999 123.685Q547.930 120.740 547.930 115.966Q547.930 111.192 551.123 108.278Q554.316 105.364 559.524 105.364L569.506 105.364L569.506 102.760Q569.506 96.498 562.562 96.498Q559.462 96.498 557.571 97.645Q555.680 98.792 555.556 100.838L549.480 100.838Q549.790 96.684 553.262 93.987Q556.734 91.290 562.562 91.290Q568.824 91.290 572.234 94.266Q575.644 97.242 575.644 102.636L575.644 126.010L569.630 126.010L569.630 119.748L569.506 119.748Q569.072 122.910 566.375 124.770Q563.678 126.630 559.338 126.630M560.950 121.484Q564.856 121.484 567.181 119.593Q569.506 117.702 569.506 114.416L569.506 109.890L560.082 109.890Q557.416 109.890 555.773 111.471Q554.130 113.052 554.130 115.656Q554.130 118.322 555.928 119.903Q557.726 121.484 560.950 121.484 M600.134 126.506L597.406 126.506Q591.578 126.506 588.354 123.902Q585.130 121.298 585.130 116.586L591.206 116.586Q591.206 118.818 592.849 120.089Q594.492 121.360 597.406 121.360L600.134 121.360Q603.172 121.360 604.815 120.058Q606.458 118.756 606.458 116.400Q606.458 112.246 602.366 111.750L593.190 110.448Q589.532 109.890 587.548 107.441Q585.564 104.992 585.564 101.086Q585.564 96.498 588.664 93.956Q591.764 91.414 597.344 91.414L600.072 91.414Q605.280 91.414 608.504 93.894Q611.728 96.374 611.914 100.466L605.714 100.466Q605.590 98.730 604.102 97.583Q602.614 96.436 600.072 96.436L597.344 96.436Q594.554 96.436 593.035 97.676Q591.516 98.916 591.516 101.024Q591.516 104.434 594.926 104.868L603.544 106.108Q612.410 107.286 612.410 116.400Q612.410 121.236 609.217 123.871Q606.024 126.506 600.134 126.506 M635.040 126.630Q628.902 126.630 625.151 122.972Q621.400 119.314 621.400 112.990L621.400 104.930Q621.400 98.606 625.151 94.948Q628.902 91.290 635.040 91.290Q639.132 91.290 642.201 92.933Q645.270 94.576 646.975 97.521Q648.680 100.466 648.680 104.372L648.680 110.510L627.414 110.510L627.414 113.486Q627.414 117.206 629.460 119.314Q631.506 121.422 635.040 121.422Q638.016 121.422 639.938 120.306Q641.860 119.190 642.232 117.206L648.370 117.206Q647.750 121.546 644.092 124.088Q640.434 126.630 635.040 126.630M627.414 104.372L627.414 105.984L642.666 105.984L642.666 104.372Q642.666 100.466 640.682 98.358Q638.698 96.250 635.040 96.250Q631.382 96.250 629.398 98.358Q627.414 100.466 627.414 104.372" fill="#1b1a17"/>
<path d="M286.760 174L285.320 174L285.320 167.712L282.760 167.712L282.760 166.400L285.320 166.400L285.320 164.560Q285.320 163.520 285.976 162.920Q286.632 162.320 287.784 162.320L290.360 162.320L290.360 163.632L287.784 163.632Q286.760 163.632 286.760 164.560L286.760 166.400L290.360 166.400L290.360 167.712L286.760 167.712 M295.192 174L293.752 174L293.752 165.200L295.192 165.200L295.192 166.880L295.224 166.880Q295.336 166.032 295.944 165.536Q296.552 165.040 297.576 165.040Q298.952 165.040 299.696 165.864Q300.440 166.688 300.440 168.208L300.440 168.960L299 168.960L299 168.208Q299 166.288 297.128 166.288Q296.184 166.288 295.688 166.832Q295.192 167.376 295.192 168.400 M306.840 174.128Q305.256 174.128 304.320 173.200Q303.384 172.272 303.384 170.608L303.384 168.592Q303.384 166.912 304.312 165.992Q305.240 165.072 306.840 165.072Q308.440 165.072 309.368 165.992Q310.296 166.912 310.296 168.592L310.296 170.608Q310.296 172.272 309.360 173.200Q308.424 174.128 306.840 174.128M306.840 172.848Q307.784 172.848 308.320 172.320Q308.856 171.792 308.856 170.768L308.856 168.432Q308.856 167.408 308.320 166.880Q307.784 166.352 306.840 166.352Q305.912 166.352 305.368 166.880Q304.824 167.408 304.824 168.432L304.824 170.768Q304.824 171.792 305.368 172.320Q305.912 172.848 306.840 172.848 M314.424 174L313.080 174L313.080 165.200L314.328 165.200L314.328 166.368L314.360 166.368Q314.440 165.776 314.832 165.408Q315.224 165.040 315.832 165.040Q316.408 165.040 316.808 165.376Q317.208 165.712 317.384 166.288L317.400 166.288Q317.512 165.712 317.904 165.376Q318.296 165.040 318.904 165.040Q319.752 165.040 320.256 165.672Q320.760 166.304 320.760 167.312L320.760 174L319.416 174L319.416 167.296Q319.416 166.768 319.160 166.456Q318.904 166.144 318.456 166.144Q318.024 166.144 317.768 166.448Q317.512 166.752 317.512 167.280L317.512 174L316.328 174L316.328 167.296Q316.328 166.768 316.072 166.456Q315.816 166.144 315.384 166.144Q314.936 166.144 314.680 166.448Q314.424 166.752 314.424 167.280" fill="#56534b"/>
<path d="M337.064 174.160Q335.544 174.160 334.632 173.256Q333.720 172.352 333.720 170.800L333.720 165.200L335.160 165.200L335.160 170.800Q335.160 171.760 335.672 172.328Q336.184 172.896 337.064 172.896Q337.960 172.896 338.480 172.328Q339 171.760 339 170.800L339 165.200L340.440 165.200L340.440 170.800Q340.440 172.352 339.512 173.256Q338.584 174.160 337.064 174.160 M351.240 174L343.720 174L343.720 172.688L346.840 172.688L346.840 166.512L344.040 166.512L344.040 165.200L348.280 165.200L348.280 172.688L351.240 172.688L351.240 174M347.400 163.616Q346.872 163.616 346.568 163.344Q346.264 163.072 346.264 162.608Q346.264 162.128 346.568 161.848Q346.872 161.568 347.400 161.568Q347.928 161.568 348.232 161.848Q348.536 162.128 348.536 162.608Q348.536 163.072 348.232 163.344Q347.928 163.616 347.400 163.616" fill="#e85c2e"/>
<path d="M370.760 174L368.200 174Q367.112 174 366.456 173.368Q365.800 172.736 365.800 171.680L365.800 166.512L363.272 166.512L363.272 165.200L365.800 165.200L365.800 162.720L367.240 162.720L367.240 165.200L370.840 165.200L370.840 166.512L367.240 166.512L367.240 171.680Q367.240 172.128 367.504 172.408Q367.768 172.688 368.200 172.688L370.760 172.688 M377.400 174.128Q375.816 174.128 374.880 173.200Q373.944 172.272 373.944 170.608L373.944 168.592Q373.944 166.912 374.872 165.992Q375.800 165.072 377.400 165.072Q379 165.072 379.928 165.992Q380.856 166.912 380.856 168.592L380.856 170.608Q380.856 172.272 379.920 173.200Q378.984 174.128 377.400 174.128M377.400 172.848Q378.344 172.848 378.880 172.320Q379.416 171.792 379.416 170.768L379.416 168.432Q379.416 167.408 378.880 166.880Q378.344 166.352 377.400 166.352Q376.472 166.352 375.928 166.880Q375.384 167.408 375.384 168.432L375.384 170.768Q375.384 171.792 375.928 172.320Q376.472 172.848 377.400 172.848" fill="#56534b"/>
<path d="M396.792 174.160Q395.432 174.160 394.632 173.400Q393.832 172.640 393.832 171.408Q393.832 170.592 394.200 169.984Q394.568 169.376 395.224 169.032Q395.880 168.688 396.728 168.688L399.448 168.688L399.448 168Q399.448 166.288 397.576 166.288Q396.744 166.288 396.232 166.592Q395.720 166.896 395.688 167.440L394.248 167.440Q394.328 166.400 395.216 165.720Q396.104 165.040 397.576 165.040Q399.176 165.040 400.032 165.808Q400.888 166.576 400.888 167.952L400.888 174L399.464 174L399.464 172.400L399.432 172.400Q399.304 173.216 398.616 173.688Q397.928 174.160 396.792 174.160M397.144 172.944Q398.200 172.944 398.824 172.432Q399.448 171.920 399.448 171.040L399.448 169.808L396.888 169.808Q396.184 169.808 395.744 170.232Q395.304 170.656 395.304 171.360Q395.304 172.096 395.792 172.520Q396.280 172.944 397.144 172.944 M411.720 174L404.200 174L404.200 172.688L407.320 172.688L407.320 166.512L404.520 166.512L404.520 165.200L408.760 165.200L408.760 172.688L411.720 172.688L411.720 174M407.880 163.616Q407.352 163.616 407.048 163.344Q406.744 163.072 406.744 162.608Q406.744 162.128 407.048 161.848Q407.352 161.568 407.880 161.568Q408.408 161.568 408.712 161.848Q409.016 162.128 409.016 162.608Q409.016 163.072 408.712 163.344Q408.408 163.616 407.880 163.616" fill="#e85c2e"/>
<path d="M427.032 174.160Q425.672 174.160 424.872 173.400Q424.072 172.640 424.072 171.408Q424.072 170.592 424.440 169.984Q424.808 169.376 425.464 169.032Q426.120 168.688 426.968 168.688L429.688 168.688L429.688 168Q429.688 166.288 427.816 166.288Q426.984 166.288 426.472 166.592Q425.960 166.896 425.928 167.440L424.488 167.440Q424.568 166.400 425.456 165.720Q426.344 165.040 427.816 165.040Q429.416 165.040 430.272 165.808Q431.128 166.576 431.128 167.952L431.128 174L429.704 174L429.704 172.400L429.672 172.400Q429.544 173.216 428.856 173.688Q428.168 174.160 427.032 174.160M427.384 172.944Q428.440 172.944 429.064 172.432Q429.688 171.920 429.688 171.040L429.688 169.808L427.128 169.808Q426.424 169.808 425.984 170.232Q425.544 170.656 425.544 171.360Q425.544 172.096 426.032 172.520Q426.520 172.944 427.384 172.944 M435.992 174L434.552 174L434.552 165.200L435.992 165.200L435.992 166.880L436.008 166.880Q436.120 166 436.728 165.520Q437.336 165.040 438.344 165.040Q439.672 165.040 440.456 165.856Q441.240 166.672 441.240 168.080L441.240 174L439.800 174L439.800 168.336Q439.800 167.328 439.296 166.792Q438.792 166.256 437.928 166.256Q437.032 166.256 436.512 166.816Q435.992 167.376 435.992 168.400 M447.448 174.160Q446.136 174.160 445.344 173.280Q444.552 172.400 444.552 170.896L444.552 168.320Q444.552 166.800 445.336 165.920Q446.120 165.040 447.448 165.040Q448.440 165.040 449.088 165.536Q449.736 166.032 449.864 166.880L449.880 166.880L449.848 164.880L449.848 162.320L451.288 162.320L451.288 174L449.848 174L449.848 172.320L449.832 172.320Q449.720 173.184 449.080 173.672Q448.440 174.160 447.448 174.160M447.928 172.912Q448.824 172.912 449.336 172.352Q449.848 171.792 449.848 170.800L449.848 168.400Q449.848 167.408 449.336 166.848Q448.824 166.288 447.928 166.288Q447.016 166.288 446.504 166.760Q445.992 167.232 445.992 168.320L445.992 170.880Q445.992 171.952 446.504 172.432Q447.016 172.912 447.928 172.912  M468.632 174.160Q467.640 174.160 467 173.672Q466.360 173.184 466.248 172.320L466.232 172.320L466.232 174L464.792 174L464.792 162.320L466.232 162.320L466.232 164.880L466.200 166.880L466.216 166.880Q466.344 166.032 466.992 165.536Q467.640 165.040 468.632 165.040Q469.960 165.040 470.744 165.920Q471.528 166.800 471.528 168.320L471.528 170.896Q471.528 172.400 470.744 173.280Q469.960 174.160 468.632 174.160M468.152 172.912Q469.064 172.912 469.576 172.432Q470.088 171.952 470.088 170.880L470.088 168.320Q470.088 167.232 469.576 166.760Q469.064 166.288 468.152 166.288Q467.272 166.288 466.752 166.848Q466.232 167.408 466.232 168.400L466.232 170.800Q466.232 171.792 466.752 172.352Q467.272 172.912 468.152 172.912 M477.432 174.160Q476.072 174.160 475.272 173.400Q474.472 172.640 474.472 171.408Q474.472 170.592 474.840 169.984Q475.208 169.376 475.864 169.032Q476.520 168.688 477.368 168.688L480.088 168.688L480.088 168Q480.088 166.288 478.216 166.288Q477.384 166.288 476.872 166.592Q476.360 166.896 476.328 167.440L474.888 167.440Q474.968 166.400 475.856 165.720Q476.744 165.040 478.216 165.040Q479.816 165.040 480.672 165.808Q481.528 166.576 481.528 167.952L481.528 174L480.104 174L480.104 172.400L480.072 172.400Q479.944 173.216 479.256 173.688Q478.568 174.160 477.432 174.160M477.784 172.944Q478.840 172.944 479.464 172.432Q480.088 171.920 480.088 171.040L480.088 169.808L477.528 169.808Q476.824 169.808 476.384 170.232Q475.944 170.656 475.944 171.360Q475.944 172.096 476.432 172.520Q476.920 172.944 477.784 172.944 M488.408 174.160Q486.808 174.160 485.848 173.264Q484.888 172.368 484.888 170.800L484.888 168.400Q484.888 166.832 485.848 165.936Q486.808 165.040 488.408 165.040Q489.928 165.040 490.864 165.856Q491.800 166.672 491.848 168.080L490.408 168.080Q490.360 167.232 489.832 166.776Q489.304 166.320 488.408 166.320Q487.464 166.320 486.896 166.856Q486.328 167.392 486.328 168.384L486.328 170.800Q486.328 171.792 486.896 172.336Q487.464 172.880 488.408 172.880Q489.304 172.880 489.832 172.416Q490.360 171.952 490.408 171.120L491.848 171.120Q491.800 172.528 490.864 173.344Q489.928 174.160 488.408 174.160 M496.552 174L495.112 174L495.112 162.320L496.552 162.320L496.552 168.832L498.232 168.832L500.696 165.200L502.344 165.200L499.512 169.392L502.504 174L500.824 174L498.264 170.080L496.552 170.080  M517.752 174.160Q516.392 174.160 515.592 173.400Q514.792 172.640 514.792 171.408Q514.792 170.592 515.160 169.984Q515.528 169.376 516.184 169.032Q516.840 168.688 517.688 168.688L520.408 168.688L520.408 168Q520.408 166.288 518.536 166.288Q517.704 166.288 517.192 166.592Q516.680 166.896 516.648 167.440L515.208 167.440Q515.288 166.400 516.176 165.720Q517.064 165.040 518.536 165.040Q520.136 165.040 520.992 165.808Q521.848 166.576 521.848 167.952L521.848 174L520.424 174L520.424 172.400L520.392 172.400Q520.264 173.216 519.576 173.688Q518.888 174.160 517.752 174.160M518.104 172.944Q519.160 172.944 519.784 172.432Q520.408 171.920 520.408 171.040L520.408 169.808L517.848 169.808Q517.144 169.808 516.704 170.232Q516.264 170.656 516.264 171.360Q516.264 172.096 516.752 172.520Q517.240 172.944 518.104 172.944 M528.840 176.880L526.376 176.880L526.376 175.568L528.856 175.568Q529.608 175.568 530.040 175.144Q530.472 174.720 530.472 174L530.472 173.200L530.504 171.760L530.456 171.760Q530.328 172.544 529.704 172.968Q529.080 173.392 528.136 173.392Q526.776 173.392 525.992 172.528Q525.208 171.664 525.208 170.160L525.208 168.304Q525.208 166.800 525.992 165.920Q526.776 165.040 528.136 165.040Q529.080 165.040 529.704 165.488Q530.328 165.936 530.456 166.720L530.488 166.720L530.488 165.200L531.912 165.200L531.912 174Q531.912 175.328 531.088 176.104Q530.264 176.880 528.840 176.880M528.568 172.192Q529.464 172.192 529.976 171.632Q530.488 171.072 530.488 170.080L530.488 168.400Q530.488 167.408 529.976 166.848Q529.464 166.288 528.568 166.288Q527.656 166.288 527.152 166.816Q526.648 167.344 526.648 168.240L526.648 170.240Q526.648 171.136 527.152 171.664Q527.656 172.192 528.568 172.192 M537.912 174.160Q536.552 174.160 535.752 173.400Q534.952 172.640 534.952 171.408Q534.952 170.592 535.320 169.984Q535.688 169.376 536.344 169.032Q537 168.688 537.848 168.688L540.568 168.688L540.568 168Q540.568 166.288 538.696 166.288Q537.864 166.288 537.352 166.592Q536.840 166.896 536.808 167.440L535.368 167.440Q535.448 166.400 536.336 165.720Q537.224 165.040 538.696 165.040Q540.296 165.040 541.152 165.808Q542.008 166.576 542.008 167.952L542.008 174L540.584 174L540.584 172.400L540.552 172.400Q540.424 173.216 539.736 173.688Q539.048 174.160 537.912 174.160M538.264 172.944Q539.320 172.944 539.944 172.432Q540.568 171.920 540.568 171.040L540.568 169.808L538.008 169.808Q537.304 169.808 536.864 170.232Q536.424 170.656 536.424 171.360Q536.424 172.096 536.912 172.520Q537.400 172.944 538.264 172.944 M552.840 174L545.320 174L545.320 172.688L548.440 172.688L548.440 166.512L545.640 166.512L545.640 165.200L549.880 165.200L549.880 172.688L552.840 172.688L552.840 174M549 163.616Q548.472 163.616 548.168 163.344Q547.864 163.072 547.864 162.608Q547.864 162.128 548.168 161.848Q548.472 161.568 549 161.568Q549.528 161.568 549.832 161.848Q550.136 162.128 550.136 162.608Q550.136 163.072 549.832 163.344Q549.528 163.616 549 163.616 M556.952 174L555.512 174L555.512 165.200L556.952 165.200L556.952 166.880L556.968 166.880Q557.080 166 557.688 165.520Q558.296 165.040 559.304 165.040Q560.632 165.040 561.416 165.856Q562.200 166.672 562.200 168.080L562.200 174L560.760 174L560.760 168.336Q560.760 167.328 560.256 166.792Q559.752 166.256 558.888 166.256Q557.992 166.256 557.472 166.816Q556.952 167.376 556.952 168.400" fill="#56534b"/>
</svg>